# AST/ASF file generated using VICON BodyLanguage
# -----------------------------------------------
:version 1.10
:name VICON
:units
  mass 1.0
  length 0.45
  angle deg
:documentation
   .ast/.asf automatically generated from VICON data using
   VICON BodyBuilder and BodyLanguage model FoxedUp or BRILLIANT.MOD
:root
   order TX TY TZ RX RY RZ
   axis XYZ
   position 0 0 0  
   orientation 0 0 0 
:bonedata
  begin
     id 1 
     name lhipjoint
     direction 0.692814 -0.645514 0.321437 
     length 2.38754 
     axis 0 0 0  XYZ
  end
  begin
     id 2 
     name lfemur
     direction 0.34202 -0.939693 0  
     length 6.41921  
     axis 0 0 20  XYZ
    dof rx ry rz
    limits (-160.0 20.0)
           (-70.0 70.0)
           (-60.0 70.0)
  end
  begin
     id 3 
     name ltibia
     direction 0.34202 -0.939693 0   
     length 6.98247   
     axis 0 0 20   XYZ
    dof rx
    limits (-10.0 170.0)
  end
  begin
     id 4 
     name lfoot
     direction 0.0947186 -0.260237 0.960888   
     length 1.83034   
     axis -90 7.62852e-016 20   XYZ
    dof rx rz
    limits (-45.0 90.0)
           (-70.0 20.0)
  end
  begin
     id 5 
     name ltoes
     direction 1.53538e-011 -4.21952e-011 1   
     length 0.920499   
     axis -90 7.62852e-016 20   XYZ
    dof rx
    limits (-90.0 20.0)
  end
  begin
     id 6 
     name rhipjoint
     direction -0.631686 -0.693949 0.345555   
     length 2.2209  
     axis 0 0 0  XYZ 
  end
  begin
     id 7 
     name rfemur
     direction -0.34202 -0.939693 0   
     length 6.49542   
     axis 0 0 -20   XYZ
    dof rx ry rz
    limits (-160.0 20.0)
           (-70.0 70.0)
           (-70.0 60.0)
  end
  begin
     id 8 
     name rtibia
     direction -0.34202 -0.939693 0   
     length 7.21712   
     axis 0 0 -20   XYZ
    dof rx
    limits (-10.0 170.0)
 end
 begin
     id 9 
     name rfoot
     direction -0.0825378 -0.226771 0.970444   
     length 1.89724  
     axis -90 -7.62852e-016 -20   XYZ
    dof rx rz
    limits (-45.0 90.0)
           (-20.0 70.0)
  end
  begin
     id 10 
     name rtoes
     direction -1.53515e-011 -4.22016e-011 1   
     length 0.955868   
     axis -90 -7.62852e-016 -20   XYZ
    dof rx
    limits (-90.0 20.0)
  end
  begin
     id 11 
     name lowerback
     direction -0.0104711 0.984802 -0.173368   
     length 1.84931   
     axis 0 0 0   XYZ
    dof rx ry rz
    limits (-20.0 45.0)
           (-30.0 30.0)
           (-30.0 30.0)
  end
  begin
     id 12 
     name upperback
     direction -0.00286433 0.999996 -0.000382853   
     length 1.85768   
     axis 0 0 0   XYZ
    dof rx ry rz
    limits (-20.0 45.0)
           (-30.0 30.0)
           (-30.0 30.0)
  end
  begin
     id 13 
     name thorax
     direction 0.00167534 0.996793 0.0800069   
     length 1.92   
     axis 0 0 0   XYZ
    dof rx ry rz
    limits (-20.0 45.0)
           (-30.0 30.0)
           (-30.0 30.0)
  end
  begin
     id 14 
     name lowerneck
     direction -0.0672491 0.995415 0.068018   
     length 1.58923   
     axis 0 0 0   XYZ
    dof rx ry rz
    limits (-20.0 45.0)
           (-30.0 30.0)
           (-30.0 30.0)
  end
  begin
     id 15 
     name upperneck
     direction 0.0958019 0.982476 -0.159884   
     length 1.60189   
     axis 0 0 0   XYZ
    dof rx ry rz
    limits (-20.0 45.0)
           (-30.0 30.0)
           (-30.0 30.0)
  end
  begin
     id 16
     name head
     direction 0.032989 0.997338 -0.0650226  
     length 1.61681  
     axis 0 0 0   XYZ
    dof rx ry rz
    limits (-20.0 45.0)
           (-30.0 30.0)
           (-30.0 30.0)
  end
  begin
     id 17 
     name lclavicle
     direction 0.954279 0.298875 -0.00496069  
     length 2.99449  
     axis 0 0 0   XYZ
    dof ry rz
    limits (-20.0 10.0)
           (0.0 20.0)
  end
  begin
     id 18 
     name lhumerus
     direction 1 -4.48985e-011 -4.2057e-027   
     length 4.79185   
     axis 180 -30 -90   XYZ
    dof rx ry rz
    limits (-60.0 90.0)
           (-90.0 90.0)
           (-90.0 90.0)
  end
  begin
     id 19
     name lradius
     direction 1 -4.48945e-011 1.15441e-028   
     length 2.65553   
     axis 180 -30 -90   XYZ
    dof rx
    limits (-10.0 170.0)
  end
  begin
     id 20
     name lwrist
     direction 1 -4.4899e-011 4.8894e-028   
     length 1.32777   
     axis -2.56392e-016 90 90   XYZ
    dof ry
    limits (-180.0 0.0)
 end
  begin
     id 21 
     name lhand
     direction 1 -4.48908e-011 9.7788e-028   
     length 0.743904   
     axis -6.23971e-016 90 90   XYZ
    dof rx rz
    limits (-90.0 90.0)
           (-45.0 45.0)
  end
  begin
     id 22 
     name lfingers
     direction 1 -4.49068e-011 1.95576e-027   
     length 0.599754   
     axis -1.24794e-015 90 90   XYZ
    dof rx
    limits (0.0 90.0)
  end
  begin
     id 23
     name lthumb
     direction 0.707107 -6.34883e-011 0.707107   
     length 0.861131   
     axis -90 45 2.85299e-015   XYZ
    dof rx rz
    limits (-45.0 45.0)
           (-45.0 45.0)
  end
  begin
     id 24 
     name rclavicle
     direction -0.957921 0.286916 0.00811568   
     length 3.06817  
     axis 0 0 0   XYZ 
    dof ry rz
    limits (-10.0 20.0)
           (-20.0 0.0)
  end
  begin
     id 25 
     name rhumerus
     direction -1 -4.48971e-011 -3.07942e-027  
     length 4.77254   
     axis 180 30 90   XYZ
    dof rx ry rz
    limits (-90.0 60.0)
           (-90.0 90.0)
           (-90.0 90.0)
  end
  begin
     id 26 
     name rradius
     direction -1 -4.48957e-011 -9.6815e-028   
     length 2.75995   
     axis 180 30 90   XYZ
    dof rx
    limits (-10.0 170.0)
  end
  begin
     id 27 
     name rwrist
     direction -1 -4.48979e-011 4.8894e-028   
     length 1.37997   
     axis -2.56392e-016 -90 -90   XYZ
    dof ry
    limits (-180.0 0.0)
  end
  begin
     id 28
     name rhand
     direction -1 -4.48906e-011 9.7788e-028   
     length 0.701619   
     axis -6.23971e-016 -90 -90   XYZ
    dof rx rz
    limits (-90.0 90.0)
           (-45.0 45.0)
  end
  begin
     id 29
     name rfingers
     direction -1 -4.49018e-011 1.95576e-027   
     length 0.565663   
     axis -1.24794e-015 -90 -90   XYZ
    dof rx
    limits (0.0 90.0)
  end
  begin
     id 30
     name rthumb
     direction -0.707107 -6.34881e-011 0.707107   
     length 0.812183   
     axis -90 -45 -2.85299e-015   XYZ
    dof rx rz
    limits (-45.0 45.0)
           (-45.0 45.0)
  end
:hierarchy
  begin
    root lhipjoint rhipjoint lowerback
    lhipjoint lfemur
    lfemur ltibia
    ltibia lfoot
    lfoot ltoes
    rhipjoint rfemur
    rfemur rtibia
    rtibia rfoot
    rfoot rtoes
    lowerback upperback
    upperback thorax
    thorax lowerneck lclavicle rclavicle
    lowerneck upperneck
    upperneck head
    lclavicle lhumerus
    lhumerus lradius
    lradius lwrist
    lwrist lhand lthumb
    lhand lfingers
    rclavicle rhumerus
    rhumerus rradius
    rradius rwrist
    rwrist rhand rthumb
    rhand rfingers
  end

#!OML:ASF F:\VICON\USERDATA\INSTALL\rory3\rory3.ASF
:FULLY-SPECIFIED
:DEGREES
623
root -0.0237656 15.1785 -1.15838 -4.97751 4.86757 2.70481
lowerback 16.0825 1.71791 -2.11851
upperback 5.02466 1.62258 -7.05722
thorax -3.49638 0.847777 -6.62922
lowerneck -2.54132 3.68756 -11.1453
upperneck 5.49225 4.73453 15.1578
head 1.35958 2.53544 6.52092
rclavicle 1.98785e-015 2.06736e-014
rhumerus -39.7209 68.9578 -106.844
rradius 58.4225
rwrist -14.2152
rhand 4.60364 12.5246
rfingers 7.12502
rthumb 29.9918 -15.0642
lclavicle 1.98785e-015 2.06736e-014
lhumerus -19.972 6.53693 67.921
lradius 19.3458
lwrist -2.99318
lhand -6.85258 10.9662
lfingers 7.12502
lthumb 19.0126 40.057
rfemur -16.0533 7.01573 14.6658
rtibia 48.4494
rfoot -21.9676 -12.1476
rtoes -14.7297
lfemur -14.6537 -0.612283 -17.6592
ltibia 40.8668
lfoot -14.1857 -9.53487
ltoes -5.74251
624
root -0.0143813 15.219 -1.12742 -5.03837 4.62023 2.57108
lowerback 15.6225 1.67134 -2.09845
upperback 4.89055 1.58423 -7.03484
thorax -3.39728 0.827223 -6.58992
lowerneck -2.26766 3.46282 -11.1849
upperneck 5.68268 4.38295 15.2681
head 1.41178 2.35427 6.56146
rclavicle -5.56597e-014 3.02153e-014
rhumerus -41.1433 69.6421 -106.855
rradius 59.5678
rwrist -15.0783
rhand 5.2294 12.3719
rfingers 7.12502
rthumb 30.5888 -15.1071
lclavicle -5.56597e-014 3.02153e-014
lhumerus -21.1959 5.71979 68.4061
lradius 19.7815
lwrist -1.17876
lhand -6.91462 10.3353
lfingers 7.12502
lthumb 18.9529 39.4319
rfemur -15.4229 7.1695 14.8252
rtibia 47.5013
rfoot -21.5694 -12.1565
rtoes -15.4086
lfemur -13.9529 -0.793186 -17.5626
ltibia 40.0332
lfoot -14.1505 -9.10828
ltoes -5.83128
625
root -0.0056011 15.2527 -1.09755 -5.08711 4.43366 2.45221
lowerback 15.1495 1.56427 -2.12167
upperback 4.78245 1.46182 -7.01814
thorax -3.2719 0.765364 -6.51619
lowerneck -2.07585 3.24377 -11.2427
upperneck 5.80538 4.05254 15.3832
head 1.45538 2.18552 6.60717
rclavicle -3.33958e-014 4.92986e-014
rhumerus -42.5424 70.3548 -106.805
rradius 60.7074
rwrist -16.0742
rhand 6.0303 12.1165
rfingers 7.12502
rthumb 31.3522 -15.2173
lclavicle -3.33958e-014 4.92986e-014
lhumerus -22.4957 4.62935 68.8404
lradius 20.4181
lwrist 0.930283
lhand -6.86763 9.36315
lfingers 7.12502
lthumb 18.9981 38.4553
rfemur -14.8123 7.25426 14.9645
rtibia 46.5754
rfoot -21.1269 -12.2519
rtoes -16.625
lfemur -13.296 -1.00335 -17.4937
ltibia 39.2242
lfoot -14.0959 -8.68803
ltoes -6.01627
626
root 0.00341016 15.2844 -1.06697 -5.09482 4.24461 2.35578
lowerback 14.6871 1.45056 -2.16777
upperback 4.61194 1.32167 -7.00679
thorax -3.21927 0.693055 -6.43617
lowerneck -2.00259 2.97889 -11.3837
upperneck 6.16823 3.64171 15.6776
head 1.59353 1.98708 6.73193
rclavicle 1.03368e-014 1.59028e-015
rhumerus -44.1153 71.0038 -106.863
rradius 61.8019
rwrist -17.0768
rhand 6.69562 12.1324
rfingers 7.12502
rthumb 31.9859 -15.0763
lclavicle 1.03368e-014 1.59028e-015
lhumerus -24.0092 2.72898 69.3979
lradius 21.3697
lwrist 3.47406
lhand -6.85984 8.96668
lfingers 7.12502
lthumb 19.0056 38.0581
rfemur -14.2571 7.38015 15.0708
rtibia 45.6623
rfoot -20.7712 -12.245
rtoes -16.94
lfemur -12.6677 -1.25918 -17.4549
ltibia 38.4155
lfoot -14.0295 -8.24394
ltoes -6.04396
627
root 0.0101652 15.3164 -1.03683 -5.09799 4.04255 2.18584
lowerback 14.2882 1.37025 -2.15306
upperback 4.36708 1.2268 -6.94367
thorax -3.27412 0.641275 -6.34892
lowerneck -1.80082 2.65447 -11.5768
upperneck 6.5558 3.13002 16.0825
head 1.7295 1.73588 6.89907
rclavicle 3.22031e-014 -3.18055e-015
rhumerus -45.8696 71.3142 -106.985
rradius 62.7863
rwrist -17.7159
rhand 7.43202 12.3708
rfingers 7.12502
rthumb 32.6868 -14.695
lclavicle 3.22031e-014 -3.18055e-015
lhumerus -25.7798 0.00458389 70.2568
lradius 22.8443
lwrist 6.18989
lhand -6.63547 9.70547
lfingers 7.12502
lthumb 19.2214 38.7756
rfemur -13.6845 7.57833 15.277
rtibia 44.7598
rfoot -20.5291 -12.1321
rtoes -16.9125
lfemur -12.0522 -1.52697 -17.3227
ltibia 37.6038
lfoot -13.9312 -7.8126
ltoes -5.64681
628
root 0.0144448 15.3514 -1.00541 -5.12512 3.78267 2.01506
lowerback 13.878 1.3223 -2.21639
upperback 4.15194 1.16902 -6.82326
thorax -3.28962 0.608629 -6.16019
lowerneck -1.68827 2.27283 -11.844
upperneck 6.96939 2.54199 16.5278
head 1.90037 1.45005 7.0946
rclavicle 1.07344e-014 -3.02153e-014
rhumerus -47.4363 71.5471 -106.839
rradius 63.7089
rwrist -18.1233
rhand 8.25435 12.4652
rfingers 7.12502
rthumb 33.4688 -14.4349
lclavicle 1.07344e-014 -3.02153e-014
lhumerus -27.6022 -2.43691 71.1512
lradius 24.4952
lwrist 8.26495
lhand -5.94824 10.4869
lfingers 7.12502
lthumb 19.8821 39.4899
rfemur -13.0762 7.885 15.5118
rtibia 43.8556
rfoot -20.3461 -12.0253
rtoes -16.4911
lfemur -11.3762 -1.68598 -17.1734
ltibia 36.7535
lfoot -13.8663 -7.3898
ltoes -5.657
629
root 0.0226726 15.3844 -0.972051 -5.14406 3.58014 1.99016
lowerback 13.3929 1.2492 -2.36061
upperback 4.01366 1.07672 -6.74576
thorax -3.18533 0.561255 -5.96211
lowerneck -1.65688 1.88658 -12.0883
upperneck 7.42164 1.95043 16.8848
head 2.10292 1.1646 7.25933
rclavicle -7.95139e-015 -3.02153e-014
rhumerus -48.6066 71.8782 -106.294
rradius 64.6396
rwrist -18.5658
rhand 8.83172 12.4389
rfingers 7.12502
rthumb 34.0174 -14.341
lclavicle -7.95139e-015 -3.02153e-014
lhumerus -29.4267 -4.78191 72.0774
lradius 26.2318
lwrist 10.0129
lhand -5.08928 10.8059
lfingers 7.12502
lthumb 20.7076 39.7211
rfemur -12.4697 8.08421 15.5536
rtibia 42.952
rfoot -20.1571 -11.9679
rtoes -16.0101
lfemur -10.6715 -1.83735 -17.2084
ltibia 35.8467
lfoot -13.7914 -6.9928
ltoes -5.77782
630
root 0.0314298 15.4169 -0.937721 -5.12612 3.36637 2.00032
lowerback 12.9026 1.19252 -2.51338
upperback 3.85654 1.00508 -6.67126
thorax -3.0947 0.52399 -5.76774
lowerneck -1.53321 1.49436 -12.1681
upperneck 7.81732 1.35058 17.0318
head 2.28322 0.868874 7.32267
rclavicle 1.27222e-014 0
rhumerus -49.4422 72.0443 -105.36
rradius 65.5723
rwrist -18.9642
rhand 9.46254 12.3784
rfingers 7.12502
rthumb 34.6164 -14.2664
lclavicle 1.27222e-014 0
lhumerus -31.3504 -7.20255 73.0714
lradius 28.1187
lwrist 11.3737
lhand -4.27777 11.2419
lfingers 7.12502
lthumb 21.4872 40.0702
rfemur -11.896 8.27639 15.5498
rtibia 42.0546
rfoot -19.9744 -11.8915
rtoes -15.7009
lfemur -9.98063 -1.97369 -17.2832
ltibia 34.8857
lfoot -13.5941 -6.58342
ltoes -5.75299
631
root 0.0334299 15.4514 -0.90259 -5.14268 2.99594 1.98687
lowerback 12.4834 1.20976 -2.77158
upperback 3.65698 1.01359 -6.52981
thorax -3.08297 0.525759 -5.45814
lowerneck -1.3364 1.07142 -12.3148
upperneck 8.1359 0.709239 17.1991
head 2.43621 0.547111 7.40023
rclavicle -1.98785e-016 4.92986e-014
rhumerus -50.1835 71.9879 -104.25
rradius 66.4673
rwrist -19.2884
rhand 10.4225 12.4019
rfingers 7.12502
rthumb 35.5269 -14.0294
lclavicle -1.98785e-016 4.92986e-014
lhumerus -33.4527 -9.9485 74.268
lradius 30.1739
lwrist 12.7491
lhand -3.35747 11.8396
lfingers 7.12502
lthumb 22.3709 40.5643
rfemur -11.3304 8.57135 15.6323
rtibia 41.1621
rfoot -19.6214 -11.9716
rtoes -16.2844
lfemur -9.19487 -2.03164 -17.301
ltibia 33.9113
lfoot -13.4644 -6.14258
ltoes -5.69548
632
root 0.0397339 15.4844 -0.869498 -5.07936 2.80105 2.00088
lowerback 12.0343 1.13291 -3.00474
upperback 3.449 0.904759 -6.36974
thorax -3.07071 0.469677 -5.12613
lowerneck -1.24762 0.650894 -12.6157
upperneck 8.56067 0.0681188 17.4417
head 2.63962 0.229244 7.53194
rclavicle 3.37934e-015 -1.59028e-015
rhumerus -50.8485 71.8662 -102.992
rradius 67.2711
rwrist -19.2314
rhand 11.0407 12.5457
rfingers 7.12502
rthumb 36.1127 -13.7431
lclavicle 3.37934e-015 -1.59028e-015
lhumerus -35.7435 -12.7514 75.6905
lradius 32.2965
lwrist 14.4625
lhand -2.9093 12.1279
lfingers 7.12502
lthumb 22.801 40.8003
rfemur -10.8439 8.72177 15.6321
rtibia 40.2577
rfoot -19.2357 -12.0781
rtoes -17.1789
lfemur -8.54646 -2.29924 -17.3914
ltibia 32.9557
lfoot -13.3702 -5.71811
ltoes -5.53452
